<?xml version="1.0" encoding="UTF-8"?>
<svg width="1200" height="800" viewBox="0 0 1200 800" fill="none" xmlns="http://www.w3.org/2000/svg">
  <defs>
    <linearGradient id="bg" x1="0" y1="0" x2="1" y2="1">
      <stop offset="0%" stop-color="#1a1a24"/>
      <stop offset="100%" stop-color="#0f0f12"/>
    </linearGradient>
    <linearGradient id="accent" x1="0" y1="0" x2="1" y2="0">
      <stop offset="0%" stop-color="#646cff"/>
      <stop offset="100%" stop-color="#a693ff"/>
    </linearGradient>
    <filter id="shadow" x="-20%" y="-20%" width="140%" height="140%">
      <feDropShadow dx="0" dy="8" stdDeviation="16" flood-color="#000" flood-opacity="0.35"/>
    </filter>
  </defs>
  <rect x="0" y="0" width="1200" height="800" fill="url(#bg)"/>
  <g filter="url(#shadow)">
    <rect x="100" y="80" width="1000" height="640" rx="20" fill="#14141a" stroke="rgba(255,255,255,0.12)"/>
  </g>
  <!-- Ribbon -->
  <g transform="translate(940,120)">
    <circle cx="0" cy="0" r="44" fill="url(#accent)"/>
    <path d="M-12 36 L0 20 L12 36 L0 28 Z" fill="#3c3fff" opacity="0.8"/>
  </g>
  <!-- Title placeholder -->
  <rect x="160" y="160" width="520" height="28" rx="6" fill="rgba(255,255,255,0.1)"/>
  <rect x="160" y="210" width="360" height="20" rx="6" fill="rgba(255,255,255,0.08)"/>
  <!-- Lines -->
  <rect x="160" y="280" width="760" height="14" rx="4" fill="rgba(255,255,255,0.08)"/>
  <rect x="160" y="310" width="720" height="14" rx="4" fill="rgba(255,255,255,0.06)"/>
  <rect x="160" y="340" width="680" height="14" rx="4" fill="rgba(255,255,255,0.06)"/>
  <rect x="160" y="370" width="640" height="14" rx="4" fill="rgba(255,255,255,0.06)"/>
  <rect x="160" y="400" width="700" height="14" rx="4" fill="rgba(255,255,255,0.06)"/>
  <rect x="160" y="430" width="660" height="14" rx="4" fill="rgba(255,255,255,0.06)"/>
  <!-- Seal -->
  <g transform="translate(980,620)">
    <circle cx="0" cy="0" r="36" fill="url(#accent)" opacity="0.8"/>
    <text x="0" y="8" text-anchor="middle" font-family="Segoe UI, Roboto, Arial, sans-serif" font-size="20" fill="#fff">CERT</text>
  </g>
  <text x="160" y="700" fill="rgba(255,255,255,0.6)" font-family="Segoe UI, Roboto, Arial, sans-serif" font-size="18">Certificate preview (placeholder)</text>
</svg>
